<svg xmlns="http://www.w3.org/2000/svg" width="24" height="24" viewBox="0 0 24 24">
    <g fill="none" fill-rule="evenodd">
        <g fill="#00ABBD" fill-rule="nonzero">
            <g>
                <g>
                    <g>
                        <path d="M14.721 1.118c.181.157.25.405.181.63l-2.88 8.094 7.506.022c.318 0 .567.247.567.562 0 .101-.025.19-.067.266l-.046.071c-2.109 2.698-4.331 5.351-6.553 8.027-1.089 1.304-2.177 2.608-3.334 4.002-.204.247-.544.27-.793.09-.204-.18-.273-.427-.182-.652l2.857-8.072-7.505-.022c-.318 0-.567-.247-.567-.562 0-.101.025-.19.076-.275l.06-.085 6.598-8.026c1.089-1.305 2.177-2.631 3.288-3.98.205-.247.545-.27.794-.09zm2.068 1.865c1.617.851 2.92 2.117 3.818 3.579C21.506 8.046 22 9.748 22 11.538c0 2.291-.831 4.43-2.224 6.11-1.393 1.68-3.37 2.924-5.66 3.426-.293.066-.607-.13-.674-.414-.068-.284.134-.59.426-.655 2.045-.436 3.797-1.55 5.032-3.033 1.236-1.506 1.977-3.405 1.977-5.434 0-1.594-.45-3.1-1.236-4.409-.808-1.31-1.954-2.422-3.392-3.186-.27-.153-.381-.48-.224-.742s.494-.37.764-.218zm-6.232-.599c.068.284-.114.589-.432.654-2.049.458-3.8 1.57-5.03 3.052-1.229 1.482-1.957 3.378-1.957 5.383 0 1.591.455 3.117 1.274 4.446.842 1.33 2.026 2.442 3.482 3.183.274.152.387.48.228.74-.16.262-.5.371-.774.219-1.638-.85-2.981-2.093-3.914-3.597C2.524 14.982 2 13.282 2 11.474c0-2.268.82-4.382 2.208-6.06 1.388-1.678 3.368-2.92 5.666-3.444.296-.065.615.11.683.414z" transform="translate(-178 -755) translate(0 732) translate(178 23)"/>
                    </g>
                </g>
            </g>
        </g>
    </g>
</svg>
