<svg xmlns="http://www.w3.org/2000/svg" width="24" height="24" viewBox="0 0 24 24">
    <g fill="none" fill-rule="evenodd">
        <path fill="#FFF" d="M17.833 16.636c0 .66-.534 1.197-1.19 1.197H7.356c-.656 0-1.19-.537-1.19-1.197v-.382c0-.94.519-1.794 1.354-2.228 1.049-.544 2.678-1.192 4.479-1.192 1.8 0 3.43.648 4.48 1.192.834.434 1.353 1.287 1.353 2.228v.382zM12 6.166c1.608 0 2.917 1.31 2.917 2.917C14.917 10.69 13.608 12 12 12c-1.608 0-2.917-1.309-2.917-2.917 0-1.608 1.309-2.917 2.917-2.917zM12 2C6.486 2 2 6.486 2 12s4.486 10 10 10 10-4.486 10-10S17.514 2 12 2z"/>
    </g>
</svg>
