<svg xmlns="http://www.w3.org/2000/svg" width="24" height="24" viewBox="0 0 24 24">
    <g fill="none" fill-rule="evenodd">
        <path fill="#D0D0D0" d="M19.64 12.98c.042-.32.073-.64.073-.98 0-.34-.031-.66-.072-.98l2.169-1.65c.195-.15.247-.42.123-.64l-2.056-3.46c-.123-.22-.4-.3-.627-.22l-2.56 1c-.534-.4-1.11-.73-1.737-.98l-.39-2.65c-.032-.24-.248-.42-.505-.42H9.946c-.257 0-.473.18-.504.42l-.39 2.65c-.627.25-1.203.59-1.738.98l-2.56-1c-.236-.09-.503 0-.627.22L2.071 8.73c-.133.22-.072.49.124.64l2.169 1.65c-.041.32-.072.65-.072.98 0 .33.03.66.072.98l-2.17 1.65c-.195.15-.246.42-.123.64l2.056 3.46c.124.22.401.3.627.22l2.56-1c.535.4 1.11.73 1.738.98l.39 2.65c.031.24.247.42.504.42h4.112c.257 0 .473-.18.504-.42l.39-2.65c.628-.25 1.204-.59 1.738-.98l2.56 1c.236.09.504 0 .627-.22l2.056-3.46c.124-.22.072-.49-.123-.64l-2.17-1.65zm-7.638 2.52c-1.984 0-3.598-1.57-3.598-3.5s1.614-3.5 3.598-3.5c1.984 0 3.598 1.57 3.598 3.5s-1.614 3.5-3.598 3.5z"/>
    </g>
</svg>
